<svg id="visual" viewBox="0 0 900 600" width="900" height="600" xmlns="http://www.w3.org/2000/svg" xmlns:xlink="http://www.w3.org/1999/xlink" version="1.1"><path d="M0 121L82 97L164 109L245 67L327 133L409 61L491 109L573 91L655 67L736 43L818 73L900 121L900 0L818 0L736 0L655 0L573 0L491 0L409 0L327 0L245 0L164 0L82 0L0 0Z" fill="#fbc1bd"></path><path d="M0 187L82 175L164 295L245 151L327 319L409 187L491 337L573 307L655 319L736 277L818 181L900 319L900 119L818 71L736 41L655 65L573 89L491 107L409 59L327 131L245 65L164 107L82 95L0 119Z" fill="#ffa49c"></path><path d="M0 397L82 391L164 421L245 403L327 505L409 469L491 475L573 403L655 421L736 385L818 373L900 451L900 317L818 179L736 275L655 317L573 305L491 335L409 185L327 317L245 149L164 293L82 173L0 185Z" fill="#ff867b"></path><path d="M0 535L82 499L164 499L245 553L327 553L409 523L491 535L573 505L655 499L736 499L818 505L900 529L900 449L818 371L736 383L655 419L573 401L491 473L409 467L327 503L245 401L164 419L82 389L0 395Z" fill="#fb6759"></path><path d="M0 601L82 601L164 601L245 601L327 601L409 601L491 601L573 601L655 601L736 601L818 601L900 601L900 527L818 503L736 497L655 497L573 503L491 533L409 521L327 551L245 551L164 497L82 497L0 533Z" fill="#f44336"></path></svg>